<?xml version="1.0" encoding="utf-8"?>
<!-- Generator: Adobe Illustrator 24.0.0, SVG Export Plug-In . SVG Version: 6.00 Build 0)  -->
<svg version="1.1" id="Layer_1" xmlns="http://www.w3.org/2000/svg" xmlns:xlink="http://www.w3.org/1999/xlink" x="0px" y="0px"
	 viewBox="0 0 66 65.8" style="enable-background:new 0 0 66 65.8;" xml:space="preserve">
<g>
	<g>
		<path d="M43,31.5l-3.7-1.3c-0.3-1-0.7-2-1.3-3l1.7-3.5c0.2-0.4,0.1-0.9-0.2-1.1l-4.3-4.3c-0.3-0.3-0.8-0.4-1.1-0.2l-3.5,1.7
			c-1-0.5-2-0.9-3-1.3l-1.3-3.7c-0.1-0.4-0.5-0.7-0.9-0.7h-6.1c-0.4,0-0.8,0.3-1,0.7L17,18.5c-1,0.3-2,0.7-3,1.3L10.6,18
			c-0.4-0.2-0.8-0.1-1.2,0.2l-4.3,4.3c-0.3,0.3-0.4,0.8-0.2,1.1l1.7,3.5c-0.5,1-0.9,2-1.2,3l-3.7,1.3C1.3,31.6,1,32,1,32.4v6.1
			c0,0.4,0.3,0.8,0.7,1l3.7,1.3c0.3,1,0.7,2,1.3,3L5,47.3c-0.2,0.4-0.1,0.9,0.2,1.2l4.3,4.3c0.3,0.3,0.8,0.4,1.2,0.2l3.5-1.7
			c1,0.5,2,0.9,3,1.3l1.3,3.7c0.1,0.4,0.5,0.7,0.9,0.7h6.1c0.4,0,0.8-0.3,0.9-0.7l1.3-3.7c1-0.3,2-0.7,3-1.3l3.5,1.7
			c0.4,0.2,0.8,0.1,1.1-0.2l4.3-4.3c0.3-0.3,0.4-0.8,0.2-1.2L38,43.7c0.5-1,0.9-2,1.3-3l3.7-1.3c0.4-0.1,0.7-0.5,0.7-1v-6.1
			C43.7,32,43.4,31.6,43,31.5z M22.3,44c-4.7,0-8.5-3.8-8.5-8.5s3.8-8.5,8.5-8.5s8.5,3.8,8.5,8.5C30.8,40.1,27,44,22.3,44z"/>
	</g>
	<g>
		<path d="M64.3,11.6l-2-0.7c-0.2-0.5-0.4-1-0.6-1.4l0.9-1.9c0.2-0.4,0.1-0.8-0.2-1.2L60,3.9c-0.3-0.3-0.8-0.4-1.1-0.2L57,4.6
			c-0.5-0.2-0.9-0.4-1.4-0.6l-0.7-2c-0.1-0.4-0.5-0.7-0.9-0.7h-3.6c-0.4,0-0.8,0.3-1,0.7l-0.7,2c-0.5,0.2-1,0.4-1.4,0.6l-1.9-0.9
			c-0.4-0.2-0.9-0.1-1.2,0.2l-2.5,2.5c-0.3,0.3-0.4,0.8-0.2,1.2l0.9,1.9c-0.2,0.5-0.4,0.9-0.6,1.4l-2,0.7c-0.4,0.1-0.7,0.5-0.7,0.9
			v3.6c0,0.4,0.3,0.8,0.7,0.9l2,0.7c0.2,0.5,0.4,1,0.6,1.5L41.5,21c-0.2,0.4-0.1,0.9,0.2,1.2l2.5,2.5c0.3,0.3,0.8,0.4,1.2,0.2
			l1.9-0.9c0.5,0.2,1,0.4,1.4,0.6l0.7,2c0.1,0.4,0.5,0.7,1,0.7H54c0.4,0,0.8-0.3,0.9-0.7l0.7-2c0.5-0.2,1-0.4,1.4-0.6l1.9,0.9
			c0.4,0.2,0.8,0.1,1.2-0.2l2.5-2.5c0.3-0.3,0.4-0.8,0.2-1.2l-0.9-1.9c0.2-0.5,0.4-1,0.6-1.5l2-0.7c0.4-0.1,0.7-0.5,0.7-0.9v-3.6
			C65,12.1,64.7,11.7,64.3,11.6z M52.1,19.3c-2.8,0-5-2.2-5-5c0-2.7,2.2-5,5-5c2.7,0,5,2.2,5,5S54.8,19.3,52.1,19.3z"/>
	</g>
	<g>
		<path d="M64.3,44.2l-2.8-1c-0.2-0.8-0.5-1.5-0.9-2.2l1.3-2.7c0.2-0.4,0.1-0.8-0.2-1.1l-3.4-3.4c-0.3-0.3-0.8-0.4-1.2-0.2L54.5,35
			c-0.7-0.4-1.5-0.7-2.2-0.9l-0.9-2.8c-0.1-0.4-0.5-0.7-1-0.7h-4.8c-0.2,0-0.3,0-0.5,0.1c0.3,0.5,0.5,1.1,0.5,1.7v6.1
			c0,1.3-0.8,2.4-2,2.8l-2.8,1c-0.2,0.5-0.4,1-0.6,1.4l1.3,2.6c0.6,1.2,0.4,2.5-0.6,3.5l-4.3,4.3c-0.5,0.5-1.1,0.8-1.7,0.9L34,56.8
			c-0.2,0.4-0.1,0.8,0.2,1.1l3.4,3.4c0.3,0.3,0.8,0.4,1.2,0.2l2.7-1.3c0.7,0.4,1.5,0.7,2.2,0.9l1,2.8c0.1,0.4,0.5,0.7,1,0.7h4.8
			c0.4,0,0.8-0.3,1-0.7l0.9-2.8c0.8-0.3,1.5-0.6,2.2-0.9l2.7,1.3c0.4,0.2,0.8,0.1,1.2-0.2l3.4-3.4c0.3-0.3,0.4-0.8,0.2-1.1l-1.3-2.7
			c0.4-0.7,0.7-1.5,0.9-2.2l2.8-1c0.4-0.1,0.7-0.5,0.7-1v-4.8C65,44.7,64.7,44.4,64.3,44.2z M49,54.3c-3.7,0-6.7-3-6.7-6.7
			s3-6.7,6.7-6.7s6.7,3,6.7,6.7S52.7,54.3,49,54.3z"/>
	</g>
</g>
</svg>
