<?xml version="1.0" encoding="utf-8"?>
<!-- Generator: Adobe Illustrator 24.0.0, SVG Export Plug-In . SVG Version: 6.00 Build 0)  -->
<svg version="1.1" id="Layer_1" xmlns="http://www.w3.org/2000/svg" xmlns:xlink="http://www.w3.org/1999/xlink" x="0px" y="0px"
	 viewBox="0 0 100 105" style="enable-background:new 0 0 100 105;" xml:space="preserve">
<g>
	<path d="M93.5,41.6c0.8,0,1.5-0.7,1.5-1.5s-0.7-1.5-1.5-1.5H81.8v-6.9h11.7c0.8,0,1.5-0.7,1.5-1.5s-0.7-1.5-1.5-1.5H81.4
		c-1.1-5-5.1-8.9-10.1-10.1V6.5c0-0.8-0.7-1.5-1.5-1.5s-1.5,0.7-1.5,1.5v11.7h-6.9V6.5c0-0.8-0.7-1.5-1.5-1.5s-1.5,0.7-1.5,1.5v11.7
		h-6.9V6.5C51.5,5.7,50.8,5,50,5s-1.5,0.7-1.5,1.5v11.7h-6.9V6.5c0-0.8-0.7-1.5-1.5-1.5s-1.5,0.7-1.5,1.5v11.7h-6.9V6.5
		C31.7,5.7,31,5,30.2,5s-1.5,0.7-1.5,1.5v12.1c-5,1.1-8.9,5.1-10.1,10.1H6.5c-0.8,0-1.5,0.7-1.5,1.5s0.7,1.5,1.5,1.5h11.7v6.9H6.5
		c-0.8,0-1.5,0.7-1.5,1.5s0.7,1.5,1.5,1.5h11.7v6.9H6.5C5.7,48.5,5,49.2,5,50s0.7,1.5,1.5,1.5h11.7v6.9H6.5c-0.8,0-1.5,0.7-1.5,1.5
		s0.7,1.5,1.5,1.5h11.7v6.9H6.5C5.7,68.4,5,69,5,69.9s0.7,1.5,1.5,1.5h12.1c1.1,5,5.1,8.9,10.1,10.1v12.1c0,0.8,0.7,1.5,1.5,1.5
		s1.5-0.7,1.5-1.5V81.8h6.9v11.7c0,0.8,0.7,1.5,1.5,1.5s1.5-0.7,1.5-1.5V81.8h6.9v11.7c0,0.8,0.7,1.5,1.5,1.5s1.5-0.7,1.5-1.5V81.8
		h6.9v11.7c0,0.8,0.7,1.5,1.5,1.5s1.5-0.7,1.5-1.5V81.8h6.9v11.7c0,0.8,0.7,1.5,1.5,1.5s1.5-0.7,1.5-1.5V81.4
		c5-1.1,8.9-5.1,10.1-10.1h12.1c0.8,0,1.5-0.7,1.5-1.5s-0.7-1.5-1.5-1.5H81.8v-6.9h11.7c0.8,0,1.5-0.7,1.5-1.5s-0.7-1.5-1.5-1.5
		H81.8v-6.9h11.7c0.8,0,1.5-0.7,1.5-1.5s-0.7-1.5-1.5-1.5H81.8v-6.9H93.5z M77.8,68.4c0,5.2-4.2,9.4-9.4,9.4H31.6
		c-5.2,0-9.4-4.2-9.4-9.4V31.6c0-5.2,4.2-9.4,9.4-9.4h36.8c5.2,0,9.4,4.2,9.4,9.4V68.4z"/>
	<path d="M67.9,25.8H32.1c-3.5,0-6.3,2.8-6.3,6.3v35.8c0,3.5,2.8,6.3,6.3,6.3h35.8c3.5,0,6.3-2.8,6.3-6.3V32.1
		C74.2,28.6,71.4,25.8,67.9,25.8z M71.2,67.9c0,1.8-1.5,3.3-3.3,3.3H32.1c-1.8,0-3.3-1.5-3.3-3.3V32.1c0-1.8,1.5-3.3,3.3-3.3h35.8
		c1.8,0,3.3,1.5,3.3,3.3V67.9z"/>
	<path d="M67.4,30.2h-4.9c-0.6,0-1,0.4-1,1s0.4,1,1,1h4.9c0.2,0,0.5,0.2,0.5,0.5v34.8c0,0.2-0.2,0.5-0.5,0.5H44.2c-0.6,0-1,0.4-1,1
		s0.4,1,1,1h23.1c1.4,0,2.5-1.1,2.5-2.5V32.6C69.8,31.3,68.7,30.2,67.4,30.2z"/>
	<path d="M37.1,67.8h-4.5c-0.2,0-0.5-0.2-0.5-0.5V32.6c0-0.2,0.2-0.5,0.5-0.5h24.6c0.6,0,1-0.4,1-1s-0.4-1-1-1H32.6
		c-1.4,0-2.5,1.1-2.5,2.5v34.8c0,1.4,1.1,2.5,2.5,2.5h4.5c0.6,0,1-0.4,1-1S37.7,67.8,37.1,67.8z"/>
	<path d="M43.4,52.1l3.3-3.3c0.3-0.3,0.5-0.7,0.5-1.1v-9.2c0-0.8-0.7-1.5-1.5-1.5s-1.5,0.7-1.5,1.5V47l-2.9,2.9
		c-0.5-0.2-1.1-0.4-1.7-0.4c-2.3,0-4.2,1.9-4.2,4.2s1.9,4.2,4.2,4.2s4.2-1.9,4.2-4.2C43.8,53.1,43.7,52.6,43.4,52.1z M39.6,54.9
		c-0.7,0-1.2-0.5-1.2-1.2s0.5-1.2,1.2-1.2c0.3,0,0.6,0.1,0.8,0.3l0,0l0,0c0.2,0.2,0.3,0.5,0.3,0.8C40.8,54.4,40.3,54.9,39.6,54.9z"
		/>
	<path d="M60.4,63c2.3,0,4.2-1.9,4.2-4.2s-1.9-4.2-4.2-4.2c-0.6,0-1.2,0.1-1.7,0.4l-2.9-2.9V38.5c0-0.8-0.7-1.5-1.5-1.5
		s-1.5,0.7-1.5,1.5v14.2c0,0,0,0,0,0.1c0,0.2,0,0.3,0.1,0.5v0.1c0.1,0.2,0.2,0.3,0.3,0.4l0,0l3.4,3.4c-0.2,0.5-0.4,1.1-0.4,1.7
		C56.2,61.1,58.1,63,60.4,63z M61.6,58.8c0,0.7-0.5,1.2-1.2,1.2s-1.2-0.5-1.2-1.2s0.5-1.2,1.2-1.2S61.6,58.2,61.6,58.8z"/>
	<path d="M51.5,38.5c0-0.8-0.7-1.5-1.5-1.5s-1.5,0.7-1.5,1.5v12.4l-1.1,3.7c-2.2,0.2-3.9,2-3.9,4.2c0,2.3,1.9,4.2,4.2,4.2
		s4.2-1.9,4.2-4.2c0-1.3-0.6-2.5-1.6-3.3l1.2-3.9c0,0,0,0,0-0.1v-0.1c0-0.1,0-0.1,0-0.2l0,0C51.5,51.2,51.5,38.5,51.5,38.5z
		 M47.7,60c-0.7,0-1.2-0.5-1.2-1.2s0.5-1.2,1.2-1.2s1.2,0.5,1.2,1.2S48.3,60,47.7,60z"/>
</g>
</svg>
