<?xml version="1.0" encoding="utf-8"?>
<!-- Generator: Adobe Illustrator 24.0.0, SVG Export Plug-In . SVG Version: 6.00 Build 0)  -->
<svg version="1.1" id="Layer_1" xmlns="http://www.w3.org/2000/svg" xmlns:xlink="http://www.w3.org/1999/xlink" x="0px" y="0px"
	 viewBox="0 0 100 97.8" style="enable-background:new 0 0 100 97.8;" xml:space="preserve">
<g>
	<path d="M36.7,70.7c0-0.7-0.6-1.3-1.3-1.3h-0.9v-1.5c0-0.7-0.6-1.3-1.3-1.3S32,67.2,32,67.9v1.5h-1c-0.7,0-1.3,0.6-1.3,1.3
		S30.3,72,31,72h1v1.5c0,0.7,0.6,1.3,1.3,1.3s1.3-0.6,1.3-1.3V72h0.9C36.2,72,36.7,71.4,36.7,70.7z"/>
	<path d="M59.4,21.5c0,0.7,0.6,1.3,1.3,1.3h4.6c0.7,0,1.3-0.6,1.3-1.3s-0.6-1.3-1.3-1.3h-4.6C60,20.2,59.4,20.8,59.4,21.5z"/>
	<path d="M34.8,22.8h4.6c0.7,0,1.3-0.6,1.3-1.3s-0.6-1.3-1.3-1.3h-4.6c-0.7,0-1.3,0.6-1.3,1.3C33.5,22.2,34.1,22.8,34.8,22.8z"/>
	<path d="M57.5,15.2c0.3,0,0.7-0.1,0.9-0.4l3.2-3.2c0.5-0.5,0.5-1.3,0-1.8c-0.5-0.5-1.3-0.5-1.8,0l-3.2,3.2c-0.5,0.5-0.5,1.3,0,1.8
		C56.9,15.1,57.2,15.2,57.5,15.2z"/>
	<path d="M41.6,28.1l-3.2,3.2c-0.5,0.5-0.5,1.3,0,1.8c0.2,0.2,0.6,0.4,0.9,0.4s0.7-0.1,0.9-0.4l3.2-3.2c0.5-0.5,0.5-1.3,0-1.8
		C42.9,27.6,42.1,27.6,41.6,28.1z"/>
	<path d="M41.6,14.9c0.2,0.2,0.6,0.4,0.9,0.4s0.7-0.1,0.9-0.4c0.5-0.5,0.5-1.3,0-1.8l-3.2-3.2c-0.5-0.5-1.3-0.5-1.8,0
		c-0.5,0.5-0.5,1.3,0,1.8L41.6,14.9z"/>
	<path d="M59.9,33.2c0.2,0.2,0.6,0.4,0.9,0.4s0.7-0.1,0.9-0.4c0.5-0.5,0.5-1.3,0-1.8l-3.2-3.2c-0.5-0.5-1.3-0.5-1.8,0
		c-0.5,0.5-0.5,1.3,0,1.8L59.9,33.2z"/>
	<path d="M50,12.1c0.7,0,1.3-0.6,1.3-1.3V6.3C51.3,5.6,50.7,5,50,5s-1.3,0.6-1.3,1.3v4.6C48.7,11.5,49.3,12.1,50,12.1z"/>
	<path d="M50,64.2c-7.7,0-13.9,6.2-13.9,13.9c0,0,0,0,0,0s0,0,0,0c0,0.7,0.6,1.3,1.3,1.3h25.1c0.7,0,1.3-0.6,1.3-1.3c0,0,0,0,0,0
		s0,0,0,0C63.9,70.4,57.7,64.2,50,64.2z M50,66.8c5.7,0,10.5,4.3,11.1,9.9H54c-0.1-0.6-0.4-1.1-0.8-1.6l2.9-2.9
		c0.5-0.5,0.5-1.4,0-1.9s-1.4-0.5-1.9,0l-3.3,3.3c-0.3-0.1-0.6-0.1-0.9-0.1c-2,0-3.6,1.4-4,3.2h-7.1C39.5,71.2,44.3,66.8,50,66.8z"
		/>
	<path d="M87.1,71.4c-0.2-0.3-0.4-0.5-0.6-0.7c0,0-0.1-0.1-0.1-0.1c0,0,0-0.1,0-0.1c0.2-0.6,0.6-1.6,0.2-2.6c-0.4-1-1.4-1.5-2-1.7
		c0,0-0.1,0-0.1,0c0,0,0-0.1,0-0.1c0-0.7,0-1.7-0.8-2.5c-0.8-0.8-1.8-0.8-2.5-0.8c0,0-0.1,0-0.1,0c0,0,0-0.1-0.1-0.1
		c-0.2-0.5-0.6-1.2-1.3-1.7c-0.8-2.4-3-4.1-5.6-4.1c-0.4,0-0.8,0-1.2,0.1c-1.3-1.4-2.8-2.5-4.5-3.1c2.3-2,3.7-5,3.7-8.2
		c0-6.1-5-11-11-11h-4.4c-0.5-2.5-2.4-4.5-4.8-5.2v-2.5c2.2-0.7,3.7-2.8,3.7-5.2c0-3-2.5-5.5-5.5-5.5s-5.5,2.5-5.5,5.5
		c0,2.4,1.6,4.5,3.7,5.2v2.5c-2.4,0.7-4.3,2.7-4.8,5.2H39c-6.1,0-11,5-11,11c0,3.3,1.4,6.2,3.7,8.2c-1.7,0.6-3.3,1.7-4.5,3.1
		c-0.4-0.1-0.8-0.1-1.2-0.1c-2.6,0-4.8,1.7-5.6,4.1c-0.7,0.5-1,1.2-1.3,1.7c0,0,0,0.1-0.1,0.1c0,0-0.1,0-0.1,0c-0.7,0-1.7,0-2.5,0.8
		c-0.8,0.8-0.8,1.8-0.8,2.5c0,0,0,0.1,0,0.1c0,0-0.1,0-0.1,0c-0.6,0.3-1.6,0.7-2,1.7c-0.4,1-0.1,2,0.2,2.6c0,0,0,0.1,0,0.1
		c0,0-0.1,0.1-0.1,0.1c-0.2,0.2-0.4,0.5-0.6,0.7c-4.1,0.8-7.1,4.4-7.1,8.7v3c0,3.7,3,6.7,6.7,6.7c1,0,1.8-0.8,1.8-1.8v-5h0.8v5
		c0,1,0.8,1.8,1.8,1.8c3.7,0,6.7-3,6.7-6.7v-3c0-4.1-2.8-7.5-6.5-8.6c0-0.1,0.1-0.2,0.1-0.3c0.2-0.8-0.1-1.4-0.3-2
		c0.5-0.2,1.1-0.6,1.6-1.2c0.4-0.6,0.5-1.3,0.5-1.9c0.5,0,1.2-0.1,1.8-0.5c0.7,1.1,1.8,2,3.2,2.4v4.9c0,5.9,4.5,10.9,10.3,11.5
		c-0.6,1-0.9,2.2-0.9,3.5c0,3.8,3.1,6.9,6.9,6.9h20.6c3.8,0,6.9-3.1,6.9-6.9c0-1.3-0.4-2.6-1-3.6C72,83.3,76,78.6,76,73.1v-4.9
		c1.3-0.4,2.4-1.3,3.2-2.4c0.6,0.4,1.3,0.5,1.8,0.5c0,0.6,0.1,1.3,0.5,1.9c0.4,0.6,1.1,0.9,1.6,1.2c-0.2,0.5-0.4,1.2-0.3,2
		c0,0.1,0.1,0.2,0.1,0.3c-3.7,1.1-6.5,4.5-6.5,8.6v3c0,3.7,3,6.7,6.7,6.7c1,0,1.8-0.8,1.8-1.8v-5h0.8v5c0,1,0.8,1.8,1.8,1.8
		c3.7,0,6.7-3,6.7-6.7v-3C94.2,75.9,91.2,72.3,87.1,71.4z M20.1,80.1v3c0,1.1-0.5,2-1.4,2.6v-4.4c0-1-0.8-1.8-1.8-1.8h-4.4
		c-1,0-1.8,0.8-1.8,1.8v4.4c-0.8-0.6-1.4-1.5-1.4-2.6v-3c0-3,2.4-5.4,5.4-5.4C17.7,74.8,20.1,77.2,20.1,80.1z M50,19.7
		c1.1,0,1.9,0.9,1.9,1.9c0,1.1-0.9,1.9-1.9,1.9s-1.9-0.9-1.9-1.9C48.1,20.5,48.9,19.7,50,19.7z M50,32.6c1.3,0,2.4,0.8,2.9,1.9h-5.8
		C47.6,33.4,48.7,32.6,50,32.6z M39,38H61c4.1,0,7.5,3.4,7.5,7.5c0,4.1-3.4,7.5-7.5,7.5H39c-4.1,0-7.5-3.4-7.5-7.5
		C31.5,41.4,34.8,38,39,38z M25.8,60.3c1.3,0,2.3,1,2.3,2.3s-1,2.3-2.3,2.3s-2.3-1-2.3-2.3C23.5,61.3,24.6,60.3,25.8,60.3z
		 M50.6,91.4c-1.9,0-3.4-1.5-3.4-3.4c0-1.9,1.5-3.4,3.4-3.4c1.9,0,3.4,1.5,3.4,3.4C54,89.9,52.5,91.4,50.6,91.4z M37,88.1
		c0-1.9,1.5-3.4,3.4-3.4c1.9,0,3.4,1.5,3.4,3.4c0,1.9-1.5,3.4-3.4,3.4C38.5,91.4,37,89.9,37,88.1z M60.9,91.4
		c-1.9,0-3.4-1.5-3.4-3.4c0-1.9,1.5-3.4,3.4-3.4c1.9,0,3.4,1.5,3.4,3.4C64.3,89.9,62.8,91.4,60.9,91.4z M64.3,81.1H35.7
		c-4.4,0-8-3.6-8-8v-4.9c2.4-0.8,4.1-3,4.1-5.6c0-0.2,0-0.4,0-0.6h0c0.7,0,1.3-0.6,1.3-1.3s-0.6-1.3-1.3-1.3h-1
		c-0.1-0.2-0.3-0.4-0.5-0.6c1.5-1.3,3.4-2.1,5.4-2.1h28.7c2,0,4,0.8,5.4,2.1c-0.2,0.2-0.3,0.4-0.5,0.6h-0.6c-0.7,0-1.3,0.6-1.3,1.3
		c0,0.6,0.4,1.1,1,1.3c0,0.2,0,0.4,0,0.7c0,2.6,1.7,4.8,4.1,5.6v4.9C72.4,77.5,68.8,81.1,64.3,81.1z M74.2,64.9
		c-1.3,0-2.3-1-2.3-2.3s1-2.3,2.3-2.3c1.3,0,2.3,1,2.3,2.3S75.4,64.9,74.2,64.9z M90.7,83.1c0,1.1-0.5,2-1.4,2.6v-4.4
		c0-1-0.8-1.8-1.8-1.8h-4.4c-1,0-1.8,0.8-1.8,1.8v4.4c-0.8-0.6-1.4-1.5-1.4-2.6v-3c0-3,2.4-5.4,5.4-5.4c3,0,5.4,2.4,5.4,5.4
		C90.7,80.2,90.7,83.1,90.7,83.1z"/>
	<path d="M44.6,62h3.2c0.7,0,1.3-0.6,1.3-1.3s-0.6-1.3-1.3-1.3h-3.2c-0.7,0-1.3,0.6-1.3,1.3S43.8,62,44.6,62z"/>
	<path d="M52.6,62h3.2c0.7,0,1.3-0.6,1.3-1.3s-0.6-1.3-1.3-1.3h-3.2c-0.7,0-1.3,0.6-1.3,1.3S51.9,62,52.6,62z"/>
	<path d="M36.5,62h3.2c0.7,0,1.3-0.6,1.3-1.3s-0.6-1.3-1.3-1.3h-3.2c-0.7,0-1.3,0.6-1.3,1.3S35.8,62,36.5,62z"/>
	<path d="M63.9,59.3h-3.2c-0.7,0-1.3,0.6-1.3,1.3s0.6,1.3,1.3,1.3h3.2c0.7,0,1.3-0.6,1.3-1.3S64.6,59.3,63.9,59.3z"/>
	<circle cx="39.5" cy="45.5" r="3.6"/>
	<circle cx="60.5" cy="45.5" r="3.6"/>
</g>
</svg>
